<svg width="202" height="38" viewBox="0 0 202 38" xmlns="http://www.w3.org/2000/svg"><title>Logo</title><g fill="#960014" fill-rule="evenodd"><path d="M64.038 8.31l-15.267.121-.697 4.118 5.45-.042-3.561 17.143 4.336-.034 3.567-17.143 5.276-.04zm12.222 3.652s-5.194-3.288-8.273 4.776l.881-4.905-3.698.03-3.458 17.692 3.78-.028 2.154-9.455s1.972-6.12 7.27-3.658l1.344-4.452zm4.47 15.036c-1.02.01-1.761-.634-1.768-1.652-.005-1.017 1.09-2.044 2.203-2.609 1.102-.56 4.7-1.791 4.7-1.791.028 4.251-4.11 6.04-5.135 6.052m4.777-16.127s-4.814.402-7.652 3.105l-.522 4.17s3.028-3.26 6.08-3.287c3.042-.022 5.014 2.741.121 4.348-4.897 1.612-8.86 2.471-8.822 7.378.04 4.896 7.537 4.47 9.992-.174l-.436 2.967 3.692-.034 2.584-12.691s1.523-5.835-5.037-5.782m19.323-.066c-5.183.043-7.441 5.793-7.441 5.793l.975-5.002-3.98.034-3.273 17.873 3.973-.035 2.224-10.554s1.087-3.806 4.503-3.831c3.422-.025 2.432 3.402 2.259 4.515-.175 1.11-2.052 9.727-2.052 9.727l4.158-.034 2.577-13.34s1.25-5.19-3.923-5.146m13.227-.012c-3.795.027-7.373 3.29-7.343 6.994.029 3.696 4.185 4.22 4.833 4.405.66.172 2.046.623 2.06 2.012.013 1.386-3.48 4.835-7.962-.3l-.606 4.076s1.573 1.919 4.718 1.896c3.153-.026 7.67-2.472 7.633-6.631-.032-4.162-5.122-4.3-6.427-5.4-1.303-1.102.522-3.333 2.751-3.349 2.213-.019 4.174 2.367 4.174 2.367l.892-3.98s-.941-2.124-4.723-2.09m14.593-.213c-3.877.033-9.942 4.15-9.88 11.729.059 7.586 7.378 10.39 12.509 4.16l.348-3.061s-2.286 3.168-5.616 3.197c-3.325.024-3.63-3.945-3.46-5.251.176-1.293 1.335-6.571 5.681-6.608 4.338-.035 4.826 2.92 4.826 2.92l.89-4.443s-1.413-2.674-5.298-2.643m18.009 7.907l-8.686.07s1.256-3.987 5.329-4.021c4.067-.033 3.357 3.95 3.357 3.95m-3.115-7.84c-4.806.036-10.036 5.726-9.978 12.196.05 6.48 7.518 9.886 13.62 3.683l.346-2.96s-1.634 3.06-6.171 3.094c-4.534.034-4.01-4.77-4.01-4.77l11.183-.088s1.262-3.806.874-6.117c-.384-2.31-1.057-5.076-5.864-5.039m20.059.3c-5.166.044-7.434 5.802-7.434 5.802l.971-5.002-3.972.031-3.279 17.874 3.978-.031 2.23-10.562s1.067-3.803 4.502-3.827c3.418-.029 2.42 3.4 2.25 4.51-.173 1.113-2.047 9.725-2.047 9.725l4.162-.035 2.575-13.332s1.246-5.192-3.936-5.153m17.783 7.568c.042 5.125-3.688 7.856-5.493 7.874-1.796.01-3.204-1.498-3.226-3.934-.016-2.419 1.679-7.288 5.429-7.32 3.734-.03 3.29 3.38 3.29 3.38zm2.397-11.19l-1.664 8.057s-.246-4.5-4.616-4.471c-4.37.036-8.898 5.823-8.847 12.068.051 6.235 6.328 10.837 11.603 2.544l-.937 3.892 3.944-.029 4.54-22.093-4.023.032zm9.443 3.437h.323c.46 0 .75-.02.86-.055.11-.035.2-.094.263-.186a.468.468 0 0 0 .098-.301.46.46 0 0 0-.095-.29.536.536 0 0 0-.268-.186c-.119-.035-.401-.053-.858-.053h-.323v1.07zm-.8 2.241v-3.93h.8c.75 0 1.17 0 1.263.006.262.024.469.077.618.158.143.082.268.206.369.378.097.166.146.354.146.562 0 .284-.092.527-.277.73-.187.198-.446.326-.78.373.115.043.21.093.273.148a1.7 1.7 0 0 1 .269.302c.03.039.127.2.293.477l.461.796h-.996l-.327-.64c-.218-.429-.405-.7-.549-.813-.147-.114-.33-.167-.555-.167h-.208v1.62h-.8zm1.683-4.972a3.06 3.06 0 0 0-1.473.385c-.47.255-.842.62-1.112 1.098-.267.48-.405.98-.405 1.505 0 .52.13 1.013.396 1.488.262.471.635.84 1.107 1.103a2.978 2.978 0 0 0 2.978 0 2.823 2.823 0 0 0 1.107-1.103c.266-.475.4-.968.4-1.488 0-.525-.137-1.026-.408-1.505a2.788 2.788 0 0 0-1.113-1.098 3.087 3.087 0 0 0-1.477-.385zm0-.74c.636 0 1.25.163 1.836.485a3.436 3.436 0 0 1 1.384 1.372 3.77 3.77 0 0 1 .502 1.867c0 .649-.165 1.266-.493 1.852a3.518 3.518 0 0 1-1.375 1.375 3.769 3.769 0 0 1-1.854.493 3.752 3.752 0 0 1-1.857-.493 3.511 3.511 0 0 1-1.375-1.375 3.697 3.697 0 0 1-.494-1.852c0-.651.167-1.272.5-1.867a3.455 3.455 0 0 1 1.385-1.372c.59-.322 1.2-.484 1.84-.484zM39.427 9.828a15.745 15.745 0 0 0-.298-.698C35.072.264 23.335-2.649 12.914 2.628 6.939 5.653 2.696 10.708.923 16.142h15.302l-3.028 15.075h7.833l3.026-15.075h5.135l1.565-7.413-21.358-.02C14.48 2.957 22.025.13 28.272 2.205c3.764 1.248 6.376 4.05 7.609 7.623h3.546z"/><path d="M32.559 12.425l-1.58 7.436h4.992a21.715 21.715 0 0 1-1.37 3.587c-4.426 9.102-14.435 14.348-22.358 11.718-6.518-2.16-9.587-8.982-8.006-16.401H.264c-.564 3.23-.24 6.5 1.123 9.476 4.056 8.865 15.795 11.776 26.216 6.502 9.168-4.64 14.263-14.08 12.599-22.318h-7.643z"/></g></svg>